imdb : http://www.imdb.com/title/tt0362270/
Plot: With a plan to exact revenge on a mythical shark that killed his partner, oceanographer Steve Zissou rallies a crew that includes his estranged wife, a journalist, and a man who may or may not be his son.
Total Size : 1.61 GB

General
Complete name : The Life Aquatic with Steve Zissou 2004 DVDRip [H.264 - MP4 - AAC] ~ Mindbreaker
Format : H.264/AAC/MP4 - Anamophic
Source : DVD (unknow)
File size : 1.61 GiB
Duration : 1h 53mn
Overall bit rate : 2 030 Kbps


Video
ID : 1
Format : AVC
Format/Info : Advanced Video Codec
Format profile : Main@L3.0
Duration : 1h 53mn
Bit rate : 1 866 Kbps
Width : 720 pixels
Height : 434 pixels
Display aspect ratio : 2.35:1
Frame rate : 25.000 fps
Bits/(Pixel*Frame) : 0.239
Stream size : 1.48 GiB (92%)
Writing library : x264 core 79

Audio
ID : 2
Format : AAC
Format/Info : Advanced Audio Codec
Format profile : LC
Duration : 1h 53mn
Bit rate : 160 Kbps
Channel(s) : 2 channels
Sampling rate : 48.0 KHz
Stream size : 139 MiB (8%)
Language : English

Subtitle
Format : SubRip
Language : English
Source : DVD 
http://genesis.1337x.org:1337/announce
http://tracker.openbittorrent.com/announce